<svg xmlns="http://www.w3.org/2000/svg" xmlns:xlink="http://www.w3.org/1999/xlink" width="22" height="22" viewBox="0 0 22 22"><defs><path id="q3mxa" d="M975.187 45.992l2.507 3.452-.526.526c-.477.476-.764 1.04-.8 1.63-.036.591.201 1.185.663 1.646l5.723 5.723c.461.462 1.047.7 1.638.663.59-.036 1.154-.331 1.63-.808l.519-.518 3.467 2.5c0 .024.003.042-.008.091a2.75 2.75 0 0 1-.228.594 5.553 5.553 0 0 1-1.029 1.418c-.977.977-2.262 1.26-3.612 1.051-1.35-.208-2.737-.938-3.772-1.973l-7.353-7.346c-1.035-1.035-1.766-2.422-1.974-3.772-.208-1.35.082-2.635 1.06-3.612a5.516 5.516 0 0 1 1.41-1.029c.234-.117.455-.197.601-.228.045-.01.06-.008.084-.008zm.122-.99a1.552 1.552 0 0 0-.412.045 3.535 3.535 0 0 0-.83.305 6.331 6.331 0 0 0-1.662 1.212l-.007.007c-1.21 1.216-1.57 2.86-1.326 4.443.244 1.585 1.069 3.134 2.248 4.313l7.346 7.353c1.179 1.18 2.735 2.004 4.32 2.248 1.582.244 3.22-.116 4.435-1.326l.008-.007a6.33 6.33 0 0 0 1.211-1.662c.144-.287.256-.564.313-.83.057-.267.098-.556-.107-.854a.488.488 0 0 0-.114-.114l-3.947-2.865a.488.488 0 0 0-.633.053l-.815.816c-.348.347-.7.499-1.006.518-.306.018-.593-.083-.892-.381l-5.722-5.715c-.299-.299-.4-.594-.381-.9.019-.306.178-.65.525-.998l.816-.815a.488.488 0 0 0 .046-.633l-2.858-3.947a.488.488 0 0 0-.122-.122.811.811 0 0 0-.434-.145z"/></defs><g><g transform="translate(-970 -44)"><use fill="#fff" xlink:href="#q3mxa"/><use fill="#fff" fill-opacity="0" stroke="#fff" stroke-miterlimit="50" xlink:href="#q3mxa"/></g></g></svg>