<svg xmlns="http://www.w3.org/2000/svg" xmlns:xlink="http://www.w3.org/1999/xlink" width="21" height="21" viewBox="0 0 21 21"><defs><path id="jivca" d="M1051.48 991.624l-1.408-5.629a.89.89 0 0 0-.665-.663l-5.632-1.407 13.869-6.16zm8.661-16.356a.935.935 0 0 0-1.036-.186l-18.545 8.236a.93.93 0 0 0-.558.93c.027.398.32.717.691.823l7.705 1.913 1.913 7.705c.106.372.425.664.823.691h.08c.372 0 .69-.213.85-.558l8.236-18.545c.186-.318.107-.717-.159-1.01z"/></defs><g><g transform="translate(-1040 -975)"><use fill="#fff" xlink:href="#jivca"/></g></g></svg>