<svg xmlns="http://www.w3.org/2000/svg" xmlns:xlink="http://www.w3.org/1999/xlink" width="25" height="25" viewBox="0 0 25 25"><defs><path id="1dtla" d="M60.472 127.027a8.43 8.43 0 0 1 8.446 8.445 8.43 8.43 0 0 1-8.446 8.446 8.43 8.43 0 0 1-8.445-8.446 8.43 8.43 0 0 1 8.445-8.445zm0-2.027C54.701 125 50 129.7 50 135.472c0 5.772 4.7 10.473 10.472 10.473 2.523 0 4.841-.904 6.651-2.397l6.144 6.155a1.016 1.016 0 0 0 1.436-1.436l-6.155-6.144a10.43 10.43 0 0 0 2.397-6.65c0-5.772-4.7-10.473-10.473-10.473z"/></defs><g><g transform="translate(-50 -125)"><use fill="#fff" fill-opacity=".5" xlink:href="#1dtla"/></g></g></svg>