<svg xmlns="http://www.w3.org/2000/svg" xmlns:xlink="http://www.w3.org/1999/xlink" width="27" height="27" viewBox="0 0 27 27"><defs><path id="1r4ka" d="M58.778 198.707a13.219 13.219 0 0 1-.225 10.347c-1.462 3.262-4.049 5.737-7.423 7.086-1.575.563-3.15.9-4.836.9-3.262 0-6.411-1.125-8.886-3.262-1.575-1.35-2.924-3.262-3.712-5.286-.225-.562.113-1.237.675-1.462.563-.225 1.237.112 1.462.675.675 1.687 1.8 3.149 3.15 4.386 3.149 2.812 7.536 3.487 11.472 2.025 2.812-1.125 4.95-3.15 6.186-5.962 1.238-2.811 1.35-5.848.225-8.66-1.124-2.812-3.261-4.949-5.96-6.186-2.813-1.237-5.85-1.35-8.661-.225-1.8.675-3.262 1.8-4.5 3.262l1.913-.45c.562-.225 1.237.112 1.237.787.225.562-.225 1.237-.788 1.35l-4.611 1.124h-.225c-.562 0-1.012-.337-1.125-.9l-1.124-4.61c-.113-.563.225-1.126.787-1.35.675-.113 1.237.224 1.35.9l.562 2.024c1.462-1.912 3.487-3.374 5.736-4.274a13.219 13.219 0 0 1 10.348.225c3.374 1.462 5.624 4.161 6.973 7.536zm-11.247-.787v6.191l4.049 3.04c.45.337.562 1.125.225 1.575-.225.338-.562.45-.9.45-.225 0-.45-.112-.675-.224l-4.499-3.377c-.337-.226-.45-.563-.45-.9v-6.755c0-.675.45-1.126 1.125-1.126s1.125.45 1.125 1.126z"/></defs><g><g transform="translate(-33 -190)"><use fill="#fff" xlink:href="#1r4ka"/></g></g></svg>