<svg xmlns="http://www.w3.org/2000/svg" xmlns:xlink="http://www.w3.org/1999/xlink" width="27" height="27" viewBox="0 0 27 27"><defs><path id="cogba" d="M384.423 212.686c0 1.44-1.177 2.62-2.617 2.62h-17.445a2.626 2.626 0 0 1-2.616-2.62v-8.294h22.678zM370.47 199.16h5.24a1.75 1.75 0 0 0 1.746-1.745v-1.308a.875.875 0 0 0-.873-.872.875.875 0 0 0-.873.872v1.308h-5.24v-1.308a.875.875 0 0 0-.873-.872.875.875 0 0 0-.873.872v1.308c0 .96.786 1.745 1.746 1.745zm6.113 8.286a.874.874 0 0 0-.873.87v1.305h-5.24v-1.305a.874.874 0 0 0-1.746 0v1.305c0 .957.786 1.74 1.746 1.74h5.24c.96 0 1.746-.783 1.746-1.74v-1.305a.874.874 0 0 0-.873-.87zm-12.22-15.7h17.444a2.626 2.626 0 0 1 2.617 2.619v8.294h-22.678v-8.294c0-1.44 1.177-2.62 2.616-2.62zm21.806 2.616a4.374 4.374 0 0 0-4.362-4.361h-17.445a4.374 4.374 0 0 0-4.361 4.361v18.318a4.374 4.374 0 0 0 4.361 4.361h17.445a4.374 4.374 0 0 0 4.362-4.361z"/></defs><g><g transform="translate(-360 -190)"><use fill="#fff" fill-opacity=".5" xlink:href="#cogba"/></g></g></svg>