<svg xmlns="http://www.w3.org/2000/svg" xmlns:xlink="http://www.w3.org/1999/xlink" width="36" height="27" viewBox="0 0 36 27"><defs><path id="hlvua" d="M144.324 208.143c-1.524.893-2.227 2.022-2.227 2.64v4.171h16.773v-4.171c0-.618-.703-1.747-2.228-2.64-1.524-.893-3.732-1.532-6.159-1.532-2.426 0-4.634.639-6.159 1.532zm13.89-1.47c1.615 1.068 2.755 2.461 2.755 4.1h12.588v-2.083c0-.617-.704-1.743-2.23-2.635-1.525-.892-3.734-1.53-6.162-1.53-2.928 0-5.47 1.013-6.95 2.148zm6.946-4.233c2.8 0 5.321.72 7.208 1.825 1.886 1.105 3.276 2.618 3.276 4.432v3.129c0 .576-.47 1.042-1.049 1.043h-13.628v3.128c0 .576-.47 1.043-1.048 1.043h-18.87a1.046 1.046 0 0 1-1.049-1.043v-5.214c0-1.815 1.39-3.327 3.276-4.432 1.886-1.106 4.407-1.825 7.207-1.825 2.13 0 4.084.422 5.734 1.108 1.867-1.876 5.134-3.194 8.943-3.194zm-17.822-5.14a3.121 3.121 0 0 0 3.145 3.129 3.121 3.121 0 0 0 3.145-3.129 3.121 3.121 0 0 0-3.145-3.129 3.121 3.121 0 0 0-3.145 3.13zm14.677-2.09a3.119 3.119 0 0 0 3.145 3.123 3.119 3.119 0 0 0 3.145-3.124 3.119 3.119 0 0 0-3.145-3.123 3.119 3.119 0 0 0-3.145 3.123zm-6.28 2.085c0 2.865-2.361 5.21-5.247 5.21-2.885 0-5.246-2.345-5.246-5.21 0-2.865 2.361-5.21 5.246-5.21 2.886 0 5.247 2.345 5.247 5.21zm14.667-2.08c0 2.867-2.36 5.214-5.242 5.214s-5.241-2.347-5.241-5.215c0-2.867 2.359-5.214 5.241-5.214 2.883 0 5.242 2.347 5.242 5.214z"/></defs><g><g opacity=".5" transform="translate(-140 -190)"><use fill="#fff" xlink:href="#hlvua"/></g></g></svg>